<svg height="512" viewBox="0 0 512 512" width="512" xmlns="http://www.w3.org/2000/svg"><path d="M226.92 150.41v-28.95c0-12.39 10.04-22.43 22.43-22.43h13.3c12.39 0 22.43 10.04 22.43 22.43v28.95" fill="#efb338"/><path d="M262.65 99.02H256v22.04c0 11.62 9.42 21.03 21.03 21.03h8.05v-20.64c0-12.39-10.04-22.43-22.43-22.43" fill="#d39629"/><path d="M256 59.96h35.44V22.35h-70.88v37.61z" fill="#efb338"/><path d="M256 48.6v11.36h35.44V22.35h-9.18C267.75 22.35 256 34.1 256 48.6" fill="#d39629"/><path d="M445.47 392.05v55.02H66.53v-55.02" fill="#e4e8eb"/><path d="M445.47 447.07v-55.02h-85.13c-8.94 21.85-26.76 39.54-49.87 47.95l-19.44 7.07z" fill="#cad0d7"/><path d="M256 447.07h240v42.58H16v-42.58z" fill="#e4e8eb"/><path d="M496 447.07H291.03l-42.35 15.4a24.63 24.63 0 0 0-16.22 23.15v4.04H496z" fill="#cad0d7"/><path d="M256 340.24h198.14c11.83 0 21.42 9.59 21.42 21.42v30.4H36.44v-30.4c0-11.83 9.59-21.42 21.42-21.42h6.69z" fill="#efb338"/><path d="M475.56 392.05v-30.4c0-11.83-9.59-21.42-21.42-21.42h-87.45v19.5c0 11.32-2.24 22.26-6.35 32.31h115.22z" fill="#d39629"/><path d="M64.55 340.24c0-105.74 85.72-191.45 191.45-191.45s191.45 85.72 191.45 191.45" fill="#efb338"/><path d="M447.45 340.24c0-56.26-27.63-116.2-74.35-150.92-8.35-6.21-19.88-5.85-27.76.95l-4.93 4.26c-12.43 10.74-14.48 29.35-4.48 42.39a148.9 148.9 0 0 1 30.75 90.63v12.69z" fill="#d39629"/><path d="M505.96 447.07c.1-5.53-4.43-10.08-9.96-9.96-11.15.2-30.92.62-46.39.97-.89-11.55-1.91-23.32-3.18-34.86 9.84-.13 19.67-.27 29.51-.46 5.81-.1 10.44-4.9 10.34-10.71-.15-5.43-.27-19.31-.44-24.58l-.07-4.1c.32-9.77-4.03-19.67-11.66-25.69-5.58-4.56-12.76-6.98-19.94-6.91l-3.75.09c1.57-48.67-17.96-97.83-51.75-133.31-28.7-30.89-67.12-50.7-107.84-58.02 1.52-5.9 2.65-11.89 3.63-17.91.34-3.13.22-6.38-.42-9.48-3.07-15.49-17.59-26.14-33.4-25.6.37-2.35.73-4.71 1.07-7.06.74-5.21 1.37-10.43 1.96-15.64l1.17.21c8.83 1.48 17.69 2.67 26.58 3.66 3.78.39 7.17-2.34 7.58-6.13.4-3.67.83-7.37 1.16-11.04.61-6.26 1.14-12.53 1.58-18.81l.62-9.4c0-.04.01-.13.01-.17.35-6.17-4.88-11.03-10.95-10.77-14.51-.81-29.75-1.37-44.3-1.48-8.57-.09-18.06-.07-26.58.06-6.87-.15-12.54 5.49-12.37 12.37l.21 9.4c.19 9.47.73 19.84 1.21 29.35.3 5.74 5.2 10.16 10.94 9.86 2.95-.15 5.91-.38 8.86-.57 6.49-.43 12.98-.96 19.45-1.58.71 5.93 1.51 11.84 2.46 17.74-18.3-.65-34.21 13.6-34.03 32 .06.84.09 2.28.2 3.09.97 5.95 2.09 11.86 3.58 17.69-14.67 2.59-29.1 6.88-42.94 12.95-70.06 29.14-119.35 102.89-116.59 178.62-1.06-.02-2.11-.05-3.17-.08-1.38 0-2.83.01-4.2.17-16.26 1.58-28.5 16.11-27.9 32.4-.04 2.67-.18 9.52-.22 12.29l-.29 16.39c-.11 5.8 4.5 10.58 10.3 10.69 9.66.17 19.53.33 29.52.47-1.28 11.55-2.3 23.33-3.19 34.9-15.54-.35-31.02-.68-46.41-.98-5.52-.11-10 4.43-9.91 9.94l-.73 42.58c-.1 5.79 4.5 10.56 10.29 10.66 34.79.67 85.16.98 120.38 1.4 117.48.8 243.01.49 360.37-1.38 5.8-.1 10.42-4.88 10.32-10.68zm-67.27-41.26c-1.1 10.39-2.09 21.76-2.92 32.6-2.89.07-5.79.15-8.69.22a3521 3521 0 0 0-75.44-2.82c13.33-7.73 24.27-18.79 31.89-31.85 13.06-.11 25.6-.24 37.13-.38 6.1-.09 12.2-.17 18.3-.25-.08.82-.17 1.65-.27 2.48m15.75-56.07c6.02.21 11.23 5.76 10.92 11.75.01.34 0 1.46-.02 1.89-.05 2.65-.16 9.54-.22 12.29l-.1 5.5c-23.87-.37-47.85-.68-71.93-.93 1.6-6.63 2.45-13.5 2.45-20.51v-11.57c19.81.59 39.52 1.11 58.9 1.58M323.17 173.8c4.96 1.9 9.84 4.03 14.64 6.36l-10.82 10.82a54.4 54.4 0 0 1-3.82-17.18m19.34 8.73c3.45 1.8 6.84 3.71 10.19 5.73l-17.14 17.13a54 54 0 0 1-6.34-9.57zm14.53 8.45c3.2 2.06 6.34 4.22 9.42 6.49l-19.2 19.2c-1.64-1.52-3.3-3.02-5.01-4.48-1.16-.99-2.26-2.03-3.33-3.1zm13.45 9.54c2.36 1.84 4.69 3.74 6.97 5.7.59.5 1.16 1.01 1.73 1.51l-20.64 20.64c-2.45-2.83-5.01-5.58-7.68-8.23zm12.44 10.55c2.77 2.54 5.46 5.16 8.06 7.86l-22.38 22.38c-2.16-3.11-4.43-6.14-6.82-9.1zm11.48 11.5c2.54 2.78 4.98 5.64 7.34 8.57l-24.4 24.4c-1.84-3.41-3.81-6.74-5.91-10zm10.45 12.53c2.31 3.02 4.53 6.11 6.65 9.26l-26.82 26.82c-1.49-3.73-3.13-7.4-4.92-10.99zm9.45 13.54c2.08 3.26 4.06 6.59 5.95 9.97l-29.85 29.84c-1.09-4.1-2.35-8.15-3.78-12.13zm13.63 25.27-33.71 33.71c-.6-4.55-1.41-9.06-2.41-13.5l30.92-30.92c1.84 3.51 3.57 7.09 5.2 10.71m6.54 16.44-38.94 38.94v-1.74c0-4.55-.21-9.07-.62-13.56l35.15-35.15c1.6 3.79 3.06 7.63 4.41 11.51m5.28 17.71-23.67 23.67c-5.46.15-10.92.3-16.37.46l36.53-36.53c1.3 4.09 2.47 8.23 3.51 12.4m-16.4 23.47 17.74-17.74c1.24 5.7 2.25 11.44 2.98 17.23-6.91.17-13.82.33-20.72.51M281.27 33.81c.42 5.67.89 11.38 1.42 16.75.08.89.17 1.77.26 2.66-6.52.82-13.02 1.75-19.49 2.9a7.21 7.21 0 0 0-5.68-4.08l-1.78-.21c-7.96-.85-15.93-1.53-23.91-2.1.21-4.82.4-9.87.55-14.91 16.17.05 32.48-.27 48.63-1.01m-44.84 87.43c1.58-5.85 7.06-10.13 12.93-9.79l2.21.04c3.61.05 8.49 0 12.08-.05 5.62.09 10.71 4.55 12.04 10.19.86 5.41 1.91 10.79 3.22 16.13-15.16-1.8-30.52-1.89-45.73-.18 1.31-5.41 2.3-10.88 3.25-16.34m-80.51 69.2c48.92-31.43 109.22-37.08 162.19-18.49.36 17 7.92 33 20.9 44.06 32.75 27.88 51.53 68.53 51.53 111.54v4.9c-1.15.03-2.3.06-3.46.1-42.3 1.35-88.82 2.95-131.09 5.26-.03 0-.05.01-.08.01-42.24-2.31-88.73-3.9-131-5.25-18.99-.57-37.98-1.06-56.97-1.52 7.27-57.12 39.14-109.78 87.98-140.61M57.85 349.68c65.42-1.56 132.67-3.57 198.07-7.02.03 0 .05.01.08.01 10.92.63 21.85 1.11 32.77 1.64 33.39 1.47 67.7 2.68 101.77 3.71v11.72c0 7-.91 13.87-2.6 20.46-113.42-1.1-228.67-.76-341 .99-.11-5.29-.22-10.82-.24-13.72l-.07-4.1-.02-1.02c-.62-6.63 4.64-12.44 11.24-12.67m17.95 83.64c-.69-8.05-1.66-19.6-2.53-27.51-.1-.83-.19-1.66-.28-2.49 60.23.82 125.03 1.18 183.02 1.23 35.66 0 80.84-.21 121.66-.55-8.65 13.66-21.23 24.78-36.48 31.53-85.44-2.03-170.89-.98-256.33 3.11l-8.66-.21c-.14-1.7-.27-3.41-.4-5.11M196 477.27c-52.18.23-116.15.74-169.52 1.55l-.38-22.01c15.88-.32 37.9-.79 49.9-1.09 48.71-1.17 101.31-2.82 150-4.83 9.97-.46 19.94-.86 29.92-1.39.03 0 .05.01.08.01 12.98.68 27.68 1.3 42.19 1.89l-24.01 8.73a27.1 27.1 0 0 0-9.2 5.62 2.497 2.497 0 0 0-.13 3.53c.49.53 1.16.8 1.83.8.61 0 1.22-.22 1.7-.67a22.1 22.1 0 0 1 7.5-4.58l35.51-12.91c6.78.26 13.38.52 19.6.76 43.56 1.47 91.37 2.85 135 3.77l19.87.39-.38 21.98c-93.95-1.43-196-1.85-289.48-1.55"/><path d="M96.39 282.96c10.04-32.6 34.67-62.16 64.86-78.01.24-.12.53-.03.65.21.11.21.05.46-.13.6-11.74 9.19-22.69 19.2-32.56 30.29-5.26 6-11.05 13.38-15.59 19.93-6.02 8.76-11.36 17.84-16.33 27.34-.13.24-.42.33-.66.21a.49.49 0 0 1-.24-.57m-6.97 21c-1.67-3.99-.26-8.69 3.31-11.12.32-.2.75-.07.9.28 1.65 4.06.32 8.58-3.27 11.09-.31.22-.78.1-.94-.25m-3.4 121.97c22.42-1.97 45.95-2.13 68.48-1.9 13.72.26 27.4.67 41.09 1.91.27.02.46.26.44.53-.02.24-.21.42-.44.44-22.42 1.96-45.95 2.13-68.48 1.91-13.72-.26-27.4-.66-41.09-1.91a.48.48 0 0 1-.44-.53c.02-.24.21-.43.44-.45" fill="#fff"/></svg>